<?xml version="1.0" encoding="UTF-8" standalone="no"?>
<svg
   xmlns:dc="http://purl.org/dc/elements/1.1/"
   xmlns:cc="http://creativecommons.org/ns#"
   xmlns:rdf="http://www.w3.org/1999/02/22-rdf-syntax-ns#"
   xmlns:svg="http://www.w3.org/2000/svg"
   xmlns="http://www.w3.org/2000/svg"
   id="svg8"
   version="1.1"
   viewBox="0 0 224.89687 42.465107"
   height="42.465107mm"
   width="224.89687mm">
  <defs
     id="defs2" />
  <metadata
     id="metadata5">
    <rdf:RDF>
      <cc:Work
         rdf:about="">
        <dc:format>image/svg+xml</dc:format>
        <dc:type
           rdf:resource="http://purl.org/dc/dcmitype/StillImage" />
        <dc:title></dc:title>
      </cc:Work>
    </rdf:RDF>
  </metadata>
  <g
     transform="translate(4.3465046,-16.126147)"
     id="layer1">
    <path
       id="path3884"
       transform="scale(0.26458333)"
       d="m 464.16211,60.949219 -0.69531,2.5 -0.69532,2.5 -0.0996,4.626953 -0.0996,4.626953 -1.5,1.246094 -1.5,1.24414 v 2.376953 2.378907 l -11.25,0.01367 -11.25,0.01563 -2.49219,1.259765 -2.49024,1.259766 -0.3164,1.974609 -0.31641,1.97461 -1.69336,3.5 -1.6914,3.501953 -2.82813,3.638672 -2.82812,3.638666 1.30273,2.08594 1.30273,2.08594 -1.11718,1.11718 -1.11719,1.11719 0.51953,3.88477 0.52148,3.88281 -2.6289,0.99805 -2.62695,1 v 3.47851 3.47852 l -4.25,1.90039 -4.25,1.90234 -1.90625,2.14453 -1.9043,2.14454 h -1.3457 -1.34375 v 1.5 1.5 h -2.62891 -2.62891 l -3.8457,-3.47461 -3.84766,-3.47461 -2.56445,-0.64258 -2.56641,-0.64453 -2.07421,1.86914 -2.07422,1.86719 -0.85938,2.25 -0.86133,2.25 h -1.08203 -1.08008 l -3.00586,-5.05274 -0.0391,-2.58203 -1.92968,-2.32812 -2.17774,-0.35157 -1.85352,0.53907 -1.85546,1.77539 h -3.45313 -3.45508 l -0.61718,-1 -0.61915,-1 h -3.39453 -4.6289 l -0.81641,1.90234 -3.04101,0.41992 v 1.38086 l -0.99024,0.14453 -0.48633,2.33399 -3.70117,3.81836 h -1.80273 -1.80274 l -0.78711,2.75 -0.78711,2.75 0.26172,4.16015 0.25977,4.16016 -1.64453,2.50781 -1.64258,2.50977 -2.20117,-1.86524 -2.69336,0.11328 -3.61328,-7.5332 -2.86914,-6.29883 -2.75,-0.0703 -2.75,-0.31641 v 2.36719 2.36719 l -1.20118,1.19922 -1.19921,1.19922 h -2.85157 -2.85156 l 0.0312,-8.25 0.0312,-8.25 -0.58984,-3.75782 -0.5918,-3.75976 -0.88867,-0.54883 -0.88867,-0.55078 v -3.38281 -3.38086 l -1.99415,-1.11524 -0.26171,-2.59765 1.45117,-0.72266 -0.0332,-1.46484 -1.08204,-0.66797 -1.08007,-0.66797 v -4.44141 -4.441401 h -2 -2 v 3.941401 3.94141 l -0.86133,0.53125 -0.86133,0.5332 -0.52539,6.53711 -0.52344,6.53516 -0.97656,1.24023 -0.97656,1.24024 -0.80078,3 -0.80079,3 0.18946,1.17578 0.18945,1.17383 -1.02734,0.63476 -1.02539,0.63477 v 5.74023 5.74219 l -1.20118,1.19922 -1.19921,1.19922 h -1.40626 -1.40624 l 0.35546,-7.25 0.35743,-7.25 h -1.99805 -1.9961 l -1.0039,6.19921 -1.00195,6.19727 -2.62891,2.80273 -2.62695,2.80079 -1.15821,2.25 -1.15625,2.25 h -8.84375 -8.84179 l -1.24414,1.5 -1.2461,1.5 h -3.31836 -3.31836 l -0.61718,1 -0.61915,1 h -7.4414 -7.43945 v 1.14062 1.14063 l -1.75,1.32812 -1.75,1.32813 -4.05079,0.0312 -4.05078,0.0332 -1.08593,-1.08789 -1.08789,-1.08789 -0.67188,1.08789 -0.67188,1.08789 h -3.97265 -3.9707 l -0.57618,1.5 -0.57617,1.5 h -3.77539 -3.77734 l -0.52149,-1.9961 -0.52148,-1.99414 -1.60742,-0.61718 -1.60742,-0.61719 -1.48829,1.23437 -1.48632,1.23438 v 2.17773 2.17774 l -1.20118,1.19922 -1.19921,1.20117 h -2.02149 -2.02148 l -5.7793,-5.71875 -5.77734,-5.71875 v -1.35547 -1.35547 l -1.6211,-0.0352 -1.86719,0.0898 -2.07031,4.7793 -2.07226,4.16211 -1.30664,1.57617 -1.3086,1.57422 h -2.75586 -2.75586 l -1.3125,-3.25 -1.3125,-3.25 -1.30859,-0.79883 -1.30859,-0.79883 v -2.45117 -2.45117 h -3.58789 -3.5879 l 0.67383,-3.9961 0.67578,-3.99805 -1.59961,-0.61523 -1.5996,-0.61328 -1.48829,1.23437 -1.48632,1.23438 v 2.37695 2.37696 h -1.53125 -1.53125 l -0.57618,-1.5 -0.57617,-1.5 h -1.24414 -1.24219 l -2.40039,3.24023 -2.39843,3.24023 -4.75,5.10547 -4.75,5.10742 v 2.1543 2.15235 h -0.94141 -0.94141 l -0.61914,-1.00196 -0.62109,-1.0039 -2.87695,0.50586 -2.87891,0.50781 -0.61914,-1.00391 -0.6211,-1.0039 h -3.34765 -3.34766 l -4.593748,5.10937 -4.591796,5.10742 v 1.39258 1.39063 h -0.931641 -0.929687 l -1.94336,-5.25 -1.945312,-5.25 -3.375,-1.19336 -3.375,-1.19336 -4.050782,-0.0566 -4.050781,-0.0566 -1.199219,-1.19922 -1.199218,-1.19922 v -2.10156 -3.33594 l -2.240235,-1.48828 -0.01367,-2.72461 -3.736328,0.0273 -1.634765,1.01758 -0.183594,-4.74609 -0.306641,-4.25 h -2.736328 -2.736328 l -0.957031,3.2207 -0.955078,3.21875 -2.492188,0.57422 -1.875,-0.16797 -2.404297,2.3418 0.07031,2.83593 -1.277344,1.13086 -2.515625,0.51367 -1.076172,4.26758 -2.929687,2.16602 v 1.94336 0.95508 H 35.6875 31.804688 l -0.142579,-2.99024 -2.11914,-1.01367 0.0039,-1.67383 1.365234,-0.4375 -0.367187,-0.98633 -1.972656,-1.23047 v -2.77539 -2.77343 L 27.5,158.9043 l -1.070312,-0.66211 0.164062,-4.63867 1.029297,0.0586 -0.167969,-3.46094 -2.765625,0.2461 -0.648437,1.04882 -0.648438,1.04883 -1.396484,-1.16015 -1.398438,-1.16016 -1.640625,0.62891 -1.638672,0.6289 0.650391,4.9082 0.652344,4.90821 -1.025391,0.63476 -1.023437,0.63282 v 2.88086 2.88281 l -1.095704,0.67578 -1.09375,0.67773 0.470704,2.46094 0.470703,2.46094 -1.126953,0.38476 -12.1289066,0.75586 -2.07031253,1.2168 -1.57812497,-1.50391 -5.6015625,-0.0918 -4.2421874,-0.0918 -0.583984,2.69922 -0.585938,3.19531 -2.412109,0.66992 -1.421875,0.54493 v 19.53125 19.53125 h 425.000004 425.0039 v -3.5 -3.5 h -2.06445 -2.06641 l -2.0625,1.10546 -2.06445,1.10352 -3.60938,-3.60742 -3.60742,-3.60938 1.23828,-1.98242 1.23633,-1.98242 v -4.95313 -4.95507 l -1,-0.61914 -1,-0.61719 v -1.94141 -1.9414 h 1 1 v -7.37696 -7.37695 l -1.5,-1.24609 -1.5,-1.24415 v -3.17773 -3.17773 l -0.91992,-0.94922 -0.91797,-0.95117 -0.58008,-10.3418 -0.57812,-10.34375 -0.60156,-0.97461 -0.60352,-0.97266 2.14258,-0.56054 2.14062,-0.56055 -0.30664,-0.62305 0.1875,-1.98242 -3.07422,-1.40039 -0.97265,-4.49219 -2.51563,-0.24804 h -1.40039 v 2.5 2.5 h -1.5 -1.5 v 2 2 h 2 2 v 0.9414 0.94141 l -1,0.61719 -1,0.61914 v 4.38086 4.38281 l -1.06836,0.66015 -1.07031,0.66211 0.2793,3.85547 0.27929,3.85547 -0.71093,0.70899 -0.70899,0.70898 v 3.27539 3.27344 l -1.06836,0.66015 -1.06836,0.66016 0.55274,1.4375 0.55078,1.43555 -1.62695,0.625 -1.62891,0.625 -1.33399,-1.82422 -1.33398,-1.82422 0.56055,-2.22852 0.55859,-2.23046 -1.08008,-0.66797 -1.08203,-0.66797 v -9.24024 -9.24218 l -1.0332,-1.03321 -1.03125,-1.03125 0.66797,-1.74414 0.66992,-1.74414 2.36328,-0.89844 2.36328,-0.89843 v -1.11914 -1.11719 l -1.78906,-0.46875 -1.78906,-0.46875 -0.96094,-2.1875 -0.96094,-2.18945 h -2 -2 l -0.31055,2.18945 -0.3125,2.18945 -2.10937,0.31055 -2.11133,0.3125 -0.4082,1.24219 -0.41016,1.24414 2.48438,0.94531 2.48437,0.94336 0.70899,1.15039 0.71093,1.14844 -1.11328,1.11328 -1.11328,1.11133 v 3.24218 3.24024 l -0.90625,0.56054 -0.90625,0.56055 -0.71289,9.49805 -0.71289,9.5 h -2.32031 -2.32227 l -0.6582,1.0625 -0.65625,1.0625 1.44531,1.6875 1.44531,1.6875 0.0723,6.63086 0.0723,6.63086 -3.33204,3.23047 -3.33398,3.23242 -0.99414,-0.61328 -0.99219,-0.61328 0.52344,-2 0.52344,-1.99805 -1.36719,-0.0762 -1.36719,-0.0762 -6.81445,0.14453 -6.81445,0.14453 -1.45313,-1.20703 -1.45508,-1.20703 -1.91601,1.73437 -1.91407,1.73242 -2.32226,-1.34375 -1.95117,-1.7168 -3.9043,-0.88281 -2.91406,-0.51367 -2.73828,-3.48242 -0.63477,-1.75 -2.83398,-3.64453 -2.83399,-3.64453 v -1.90625 -1.90625 l -1.19922,-1.19922 -1.20117,-1.19922 h -1.64453 -1.64453 l -1.85352,2.04687 -1.85351,2.04883 -3.55274,-0.29883 -3.55078,-0.29687 -0.98633,-2.25 -0.98828,-2.25 h -3.26172 -3.26367 v -1.87891 -1.87695 l 1.54297,-1.28125 1.54297,-1.28125 -3.04297,-3.13867 -3.04297,-3.13867 v -1.20313 -1.20312 h -2 -2 v 2.5 2.5 h -2.03125 -2.03125 l -0.60156,1.56835 -0.60156,1.56641 1.13281,1.13281 1.13281,1.13282 v 3.80078 3.79883 h -4 -4 v 1.38476 1.38281 l -1.84375,0.48243 -1.84375,0.48242 -3.40625,-1.67774 -3.40625,-1.67773 -2.20703,-1.40234 -2.20703,-1.40235 -2.35742,2.21485 -2.35742,2.21289 h -1.62696 -1.625 l -0.52929,0.85351 -0.52735,0.85352 -5.78125,-0.91602 -5.78125,-0.91797 -2.5,-1.17187 -2.5,-1.17188 -2.75586,-1.95703 -2.75586,-1.95703 -0.26953,-1.63086 1.33789,-0.39648 -0.38476,-2.54688 -2.98243,-3.04101 h -2.30859 -2.31055 l -1.07031,2 -0.082,2.125 -4.83203,0.12304 -0.13672,-2.10156 -1.55469,-0.61914 -4.40039,-5.5625 -3.08203,0.0684 -1.47656,-2.0332 -5.33984,-0.0996 -4.59571,-0.0996 -0.72851,-0.9043 -3.94336,-0.4082 -2.66407,-3.91407 -2.66406,-3.91406 -1.26367,-0.41797 -1.26367,-0.41797 -1.55469,3.72071 -1.55469,3.71875 -1.13086,-1.13086 -1.13281,-1.13281 h -5.09961 -5.09961 l -1.20117,-1.19922 -1.19922,-1.19922 -1.19922,1.19922 -1.20117,1.19922 h -2.625 -2.625 l -2.02539,-2.25 -2.02539,-2.25 -0.61914,-1.75 -0.61719,-1.75 h -1.33008 -1.33203 l -1.1875,1.1875 -1.18554,1.1875 -2.43946,-2.29297 -2.43945,-2.29102 -1.14063,0.70508 -1.14257,0.70508 -0.54883,-2.09961 -0.54883,-2.10156 h -2.5 -2.5 l 0.53711,-2.05469 0.53711,-2.05469 -2.54297,-0.9668 -2.54102,-0.96679 -1.3125,1.08984 -1.31054,1.08789 -1.56836,-2.56641 -1.56641,-2.56835 -1.5,-2.46485 -1.5,-2.46484 v -10.97461 -10.97656 l 1,-0.61914 1,-0.61719 V 95.554688 90.78125 l -0.70508,-0.705078 -0.70312,-0.703125 -0.0469,-2.712891 -0.0449,-2.71289 -2.25,-0.31836 -2.25,-0.320312 -0.008,3.320312 -0.008,3.31836 -1.52539,2.927734 -1.28125,1.814453 0.0351,3.162109 0.28321,2.046876 -1.69336,0.337892 -1.69336,0.33594 -0.6836,-3.812504 -0.68359,-3.8125 -1.62305,-1.863282 -1.62304,-1.865234 -2.5,-1.041016 -2.5,-1.041015 -1.5,-0.0957 -1.5,-0.09375 -2,-4.232422 -2,-4.232422 -1.27539,-0.01758 -1.2754,-0.01758 -0.94921,2.5 -0.95118,2.5 h -0.83398 -0.83399 l -1.9414,-1.466797 -1.93945,-1.46875 -1.73243,-0.03125 -1.73046,-0.0332 -0.60352,2.40625 -0.60352,2.404296 -2.41601,2.269532 -2.41406,2.269531 v 1.267578 1.265625 l -1.04493,0.644531 -1.04296,0.646485 -1.39258,-1.15625 -1.39063,-1.154297 -0.68164,-3.181641 -0.67969,-3.18164 -1.00586,-1.25 -1.00781,-1.25 h -4.30859 l -6.16406,-0.369141 -0.3379,-3.646484 -1.94335,-1.792969 V 74.710938 72.78125 l -0.73047,-0.728516 -0.72852,-0.730468 -0.0195,-5.1875 -0.0215,-5.185547 h -1.95508 z m 336.5332,125.380861 1.375,0.61719 0.32031,2.25 0.32032,2.25 -2.14063,0.61914 -2.13867,-0.61914 0.32031,-2.25 0.31836,-2.25 z"
       style="display:inline;opacity:1;fill:#030303;fill-opacity:1;stroke-width:0.99999994" />
  </g>
</svg>
